<?xml version="1.0" encoding="utf-8"?>
<!-- Generator: Adobe Illustrator 23.0.0, SVG Export Plug-In . SVG Version: 6.00 Build 0)  -->
<svg version="1.1" id="Слой_1" xmlns="http://www.w3.org/2000/svg" xmlns:xlink="http://www.w3.org/1999/xlink" x="0px" y="0px"
	 viewBox="0 0 1440 715" style="enable-background:new 0 0 1440 715;" xml:space="preserve">
<style type="text/css">
	.st0{opacity:0.5;fill-rule:evenodd;clip-rule:evenodd;fill:url(#SVGID_1_);enable-background:new    ;}
	.st1{opacity:0.5;fill-rule:evenodd;clip-rule:evenodd;fill:url(#SVGID_2_);enable-background:new    ;}
	.st2{opacity:0.5;fill-rule:evenodd;clip-rule:evenodd;fill:url(#SVGID_3_);enable-background:new    ;}
</style>
<linearGradient id="SVGID_1_" gradientUnits="userSpaceOnUse" x1="820.7493" y1="691.0234" x2="639.1993" y2="-353.337" gradientTransform="matrix(0.7927 0 0 -0.7927 156.939 562.1707)">
	<stop  offset="0" style="stop-color:#1ACBFD"/>
	<stop  offset="1" style="stop-color:#345AFF"/>
</linearGradient>
<path class="st0" d="M244.9,489.5l171.1-154l282.1-136.4L1105.3,0.7l229.6,152.1l20.4,562.3H16.2L244.9,489.5z"/>
<linearGradient id="SVGID_2_" gradientUnits="userSpaceOnUse" x1="619.3685" y1="577.1546" x2="795.2424" y2="-474.419" gradientTransform="matrix(0.8503 0 0 -0.8503 113.3233 604.9222)">
	<stop  offset="0" style="stop-color:#1ACBFD"/>
	<stop  offset="1" style="stop-color:#345AFF"/>
</linearGradient>
<path class="st1" d="M235.3,507.3l91.5-70.4c61.1-47,127.2-85.3,196.7-114l197.9-81.8l436.9-181.9l246.3,139.5l21.8,515.4H-10.1
	L235.3,507.3z"/>
<linearGradient id="SVGID_3_" gradientUnits="userSpaceOnUse" x1="724.4031" y1="586.2552" x2="908.7368" y2="-546.1454" gradientTransform="matrix(0.8065 0 0 -0.8065 141 572.3871)">
	<stop  offset="0" style="stop-color:#1ACBFD"/>
	<stop  offset="1" style="stop-color:#345AFF"/>
</linearGradient>
<path class="st2" d="M61.1,715.7l306.4-226.7L637,406.5l416.7-345.9c0,0,93.6,80.7,200.4,15c163.4-100.5,247,94.9,247,94.9
	l22.2,545.2"/>
</svg>
