<svg width="668" height="668" viewBox="0 0 668 668" fill="none" xmlns="http://www.w3.org/2000/svg">
<g opacity="0.4" filter="url(#filter0_f)">
<rect x="109" y="109" width="450" height="450" rx="50" fill="url(#paint0_linear)"/>
</g>
<g filter="url(#filter1_f)">
<rect x="174.625" y="162.125" width="318.75" height="318.75" rx="2" fill="url(#paint1_linear)" fill-opacity="0.3"/>
<rect x="174.625" y="162.125" width="318.75" height="318.75" rx="2" fill="black" fill-opacity="0.05"/>
</g>
<rect x="109" y="59" width="450" height="450" rx="50" fill="url(#paint2_linear)"/>
<path fill-rule="evenodd" clip-rule="evenodd" d="M268.493 353.355C269.726 349.707 273.011 347.275 276.692 347.275H408.637C412.845 347.275 416.454 350.44 417.203 354.791L421.146 377.643C421.323 378.689 421.287 379.777 420.94 380.773C420.11 383.16 418.005 384.625 415.736 384.625H265.848C264.719 384.625 263.594 384.329 262.663 383.663C260.479 382.108 259.692 379.308 260.519 376.876L268.493 353.355Z" fill="white"/>
<path fill-rule="evenodd" clip-rule="evenodd" d="M242.179 234.574L284.753 177.6L276.559 157.835C275.837 156.092 276.273 154.137 277.685 152.772C279.098 151.408 281.249 150.868 283.252 151.375L323.393 161.504C327.319 161.44 342.052 161.71 358.395 168.39C375.661 175.447 398.055 191.244 406.66 226.41C418.535 274.957 406.975 312.017 399.803 328.6H286.117L275.97 319.547C274.13 317.905 273.823 315.341 275.231 313.39C284.592 300.412 306.674 267.734 315.211 247.4C312.082 248.354 308.539 248.97 304.794 248.797C299.465 248.549 294.601 246.806 290.283 243.611L274.699 252.884C269.883 255.746 263.914 256.629 258.32 255.304C252.725 253.978 248.031 250.572 245.444 245.952L241.836 239.514C240.947 237.933 241.076 236.046 242.179 234.574ZM301.952 202.868H309.467C312.523 202.868 314.997 200.657 314.997 197.934C314.997 195.208 312.523 193.001 309.467 193.001H301.952C298.896 193.001 296.422 195.208 296.422 197.934C296.422 200.657 298.896 202.868 301.952 202.868Z" fill="white"/>
<defs>
<filter id="filter0_f" x="0.26873" y="0.26873" width="667.463" height="667.463" filterUnits="userSpaceOnUse" color-interpolation-filters="sRGB">
<feFlood flood-opacity="0" result="BackgroundImageFix"/>
<feBlend mode="normal" in="SourceGraphic" in2="BackgroundImageFix" result="shape"/>
<feGaussianBlur stdDeviation="54.3656" result="effect1_foregroundBlur"/>
</filter>
<filter id="filter1_f" x="133.851" y="121.351" width="400.298" height="400.298" filterUnits="userSpaceOnUse" color-interpolation-filters="sRGB">
<feFlood flood-opacity="0" result="BackgroundImageFix"/>
<feBlend mode="normal" in="SourceGraphic" in2="BackgroundImageFix" result="shape"/>
<feGaussianBlur stdDeviation="20.3871" result="effect1_foregroundBlur"/>
</filter>
<linearGradient id="paint0_linear" x1="784" y1="334" x2="334" y2="-116" gradientUnits="userSpaceOnUse">
<stop stop-color="#FF7676"/>
<stop offset="1" stop-color="#F54EA2"/>
</linearGradient>
<linearGradient id="paint1_linear" x1="652.75" y1="321.5" x2="334" y2="2.75" gradientUnits="userSpaceOnUse">
<stop stop-color="#FF7676"/>
<stop offset="1" stop-color="#F54EA2"/>
</linearGradient>
<linearGradient id="paint2_linear" x1="784" y1="284" x2="334" y2="-166" gradientUnits="userSpaceOnUse">
<stop stop-color="#FF7676"/>
<stop offset="1" stop-color="#F54EA2"/>
</linearGradient>
</defs>
</svg>
