<svg width="421" height="416" viewBox="0 0 421 416" fill="none" xmlns="http://www.w3.org/2000/svg">
<path fill-rule="evenodd" clip-rule="evenodd" d="M208.237 11.218L183.043 74.1968H321.606V11.218H208.237Z" fill="#39B295"/>
<path fill-rule="evenodd" clip-rule="evenodd" d="M94.8676 74.1968H208.237V11.218H94.8676V74.1968Z" fill="#59BBA8"/>
<path fill-rule="evenodd" clip-rule="evenodd" d="M0.39386 86.7932V338.708H88.5696L50.7803 36.4098C23.0679 36.4098 0.39386 59.0824 0.39386 86.7932Z" fill="url(#paint0_linear)"/>
<path fill-rule="evenodd" clip-rule="evenodd" d="M50.7803 36.4098V338.708L208.237 313.516V36.4098H50.7803Z" fill="#B72D33"/>
<path fill-rule="evenodd" clip-rule="evenodd" d="M12.449 326.063V313.468H358.854V363.851H50.2394C29.4021 363.851 12.449 346.899 12.449 326.063Z" fill="url(#paint1_linear)"/>
<path fill-rule="evenodd" clip-rule="evenodd" d="M0.406318 338.708H0.39386C0.39386 338.519 0.394899 338.331 0.396972 338.142C0.394899 337.954 0.39386 337.765 0.39386 337.577L0.406602 337.564C1.01502 310.267 23.335 288.326 50.7803 288.326H396.102V307.517C396.102 310.83 393.416 313.517 390.102 313.517H371.992V381.96C371.992 385.274 369.306 387.96 365.992 387.96H50.7803C23.3307 387.96 1.00805 366.012 0.406318 338.708ZM25.5933 338.142C25.8942 351.795 37.0549 362.768 50.7803 362.768H346.799V313.517H50.7803C37.0549 313.517 25.8942 324.491 25.5933 338.142Z" fill="url(#paint2_linear)"/>
<rect x="93.9328" y="313.468" width="227.476" height="102" fill="url(#paint3_linear)"/>
<mask id="mask0" mask-type="alpha" maskUnits="userSpaceOnUse" x="93" y="313" width="229" height="103">
<rect x="93.9328" y="313.468" width="227.476" height="102" fill="white"/>
</mask>
<g mask="url(#mask0)">
</g>
<rect x="93.9328" width="227.476" height="162.958" fill="url(#paint4_linear)"/>
<path d="M49.7957 36.2129H390.102C393.416 36.2129 396.102 38.8992 396.102 42.2129V288.571H49.7957V36.2129Z" fill="url(#paint5_linear)"/>
<path d="M263.691 165.787C263.691 137.975 286.237 115.429 314.049 115.429H415C418.314 115.429 421 118.115 421 121.429V210.146C421 213.459 418.314 216.146 415 216.146H314.049C286.237 216.146 263.691 193.599 263.691 165.787Z" fill="url(#paint6_linear)"/>
<path fill-rule="evenodd" clip-rule="evenodd" d="M313 190C325.703 190 336 179.703 336 167C336 154.297 325.703 144 313 144C300.297 144 290 154.297 290 167C290 179.703 300.297 190 313 190Z" fill="url(#paint7_linear)"/>
<defs>
<linearGradient id="paint0_linear" x1="-10.0495" y1="120.975" x2="120.255" y2="229.801" gradientUnits="userSpaceOnUse">
<stop stop-color="#1ACBFD"/>
<stop offset="1" stop-color="#345AFF"/>
</linearGradient>
<linearGradient id="paint1_linear" x1="-349.788" y1="213.537" x2="-348.986" y2="362.986" gradientUnits="userSpaceOnUse">
<stop stop-color="#1ACBFD"/>
<stop offset="1" stop-color="#345AFF"/>
</linearGradient>
<linearGradient id="paint2_linear" x1="-266.607" y1="140.926" x2="-267.212" y2="379.844" gradientUnits="userSpaceOnUse">
<stop stop-color="#1ACBFD"/>
<stop offset="1" stop-color="#345AFF"/>
</linearGradient>
<linearGradient id="paint3_linear" x1="398.942" y1="355.48" x2="267.219" y2="182.503" gradientUnits="userSpaceOnUse">
<stop stop-color="#1CFFBE"/>
<stop offset="1" stop-color="#35E9F2"/>
</linearGradient>
<linearGradient id="paint4_linear" x1="398.942" y1="67.1194" x2="184.768" y2="-108.923" gradientUnits="userSpaceOnUse">
<stop stop-color="#1CFFBE"/>
<stop offset="1" stop-color="#35E9F2"/>
</linearGradient>
<linearGradient id="paint5_linear" x1="-110.241" y1="104.945" x2="3.70749" y2="370.264" gradientUnits="userSpaceOnUse">
<stop stop-color="#1ACBFD"/>
<stop offset="1" stop-color="#345AFF"/>
</linearGradient>
<linearGradient id="paint6_linear" x1="217.437" y1="156.452" x2="284.213" y2="295.05" gradientUnits="userSpaceOnUse">
<stop stop-color="#1ACBFD"/>
<stop offset="1" stop-color="#345AFF"/>
</linearGradient>
<linearGradient id="paint7_linear" x1="350.077" y1="168.99" x2="308.057" y2="132.876" gradientUnits="userSpaceOnUse">
<stop stop-color="#FCE38A"/>
<stop offset="1" stop-color="#F38181"/>
</linearGradient>
</defs>
</svg>
