<?xml version="1.0" encoding="utf-8"?>
<!-- Generator: Adobe Illustrator 23.0.0, SVG Export Plug-In . SVG Version: 6.00 Build 0)  -->
<svg version="1.1" id="Слой_1" xmlns="http://www.w3.org/2000/svg" xmlns:xlink="http://www.w3.org/1999/xlink" x="0px" y="0px"
	 viewBox="0 0 38 38" style="enable-background:new 0 0 38 38;" xml:space="preserve">
<style type="text/css">
	.st0{fill:url(#SVGID_1_);}
	.st1{fill-rule:evenodd;clip-rule:evenodd;fill:#FBFCFD;}
</style>
<linearGradient id="SVGID_1_" gradientUnits="userSpaceOnUse" x1="67.167" y1="-28.9143" x2="1.9081" y2="38.712" gradientTransform="matrix(1 0 0 -1 0 40)">
	<stop  offset="0" style="stop-color:#1ACBFD"/>
	<stop  offset="1" style="stop-color:#345AFF"/>
</linearGradient>
<path class="st0" d="M6,0h26c3.3,0,6,2.7,6,6v26c0,3.3-2.7,6-6,6H6c-3.3,0-6-2.7-6-6V6C0,2.7,2.7,0,6,0z"/>
<path class="st1" d="M27,14.9c-0.6,0.3-1.2,0.4-1.9,0.5c0.7-0.4,1.2-1.1,1.4-1.8c-0.6,0.4-1.3,0.7-2.1,0.8c-0.6-0.6-1.4-1-2.4-1
	c-1.8,0-3.3,1.5-3.3,3.3c0,0.3,0,0.5,0.1,0.7c-2.7-0.1-5.1-1.4-6.8-3.4c-0.3,0.5-0.4,1.1-0.4,1.7c0,1.1,0.6,2.1,1.5,2.7
	c-0.5,0-1-0.2-1.5-0.4v0c0,1.6,1.1,2.9,2.6,3.2c-0.3,0.1-0.6,0.1-0.9,0.1c-0.2,0-0.4,0-0.6-0.1c0.4,1.3,1.6,2.3,3.1,2.3
	c-1.1,0.9-2.5,1.4-4.1,1.4c-0.3,0-0.5,0-0.8,0c1.5,0.9,3.2,1.5,5,1.5c6,0,9.3-5,9.3-9.3l0-0.4C26,16.2,26.6,15.6,27,14.9z"/>
</svg>
