<?xml version="1.0" encoding="utf-8"?>
<!-- Generator: Adobe Illustrator 23.0.0, SVG Export Plug-In . SVG Version: 6.00 Build 0)  -->
<svg version="1.1" id="Слой_1" xmlns="http://www.w3.org/2000/svg" xmlns:xlink="http://www.w3.org/1999/xlink" x="0px" y="0px"
	 viewBox="0 0 38 38" style="enable-background:new 0 0 38 38;" xml:space="preserve">
<style type="text/css">
	.st0{fill:url(#SVGID_1_);}
	.st1{fill-rule:evenodd;clip-rule:evenodd;fill:#FBFCFD;}
</style>
<linearGradient id="SVGID_1_" gradientUnits="userSpaceOnUse" x1="67.167" y1="-28.9143" x2="1.9081" y2="38.712" gradientTransform="matrix(1 0 0 -1 0 40)">
	<stop  offset="0" style="stop-color:#1ACBFD"/>
	<stop  offset="1" style="stop-color:#345AFF"/>
</linearGradient>
<path class="st0" d="M6,0h26c3.3,0,6,2.7,6,6v26c0,3.3-2.7,6-6,6H6c-3.3,0-6-2.7-6-6V6C0,2.7,2.7,0,6,0z"/>
<path class="st1" d="M25.5,20.8c0.6,0.6,1.2,1.1,1.8,1.7c0.2,0.3,0.5,0.6,0.6,0.9c0.2,0.5,0,1-0.4,1l-2.6,0
	c-0.7,0.1-1.2-0.2-1.7-0.7c-0.4-0.4-0.7-0.7-1-1.1c-0.1-0.2-0.3-0.3-0.5-0.4C21.4,22,21,22,20.8,22.4c-0.2,0.4-0.3,0.8-0.3,1.2
	c0,0.6-0.2,0.8-0.8,0.8c-1.3,0.1-2.6-0.1-3.8-0.8c-1-0.6-1.8-1.4-2.5-2.3c-1.4-1.8-2.4-3.8-3.3-5.8c-0.2-0.5-0.1-0.7,0.5-0.7
	c0.9,0,1.7,0,2.6,0c0.3,0,0.6,0.2,0.7,0.5c0.5,1.1,1,2.2,1.7,3.2c0.2,0.3,0.4,0.5,0.7,0.7c0.3,0.2,0.5,0.1,0.7-0.2
	c0.1-0.2,0.1-0.4,0.2-0.7c0.1-0.8,0.1-1.6,0-2.3c-0.1-0.5-0.4-0.8-0.8-0.9c-0.3,0-0.2-0.1-0.1-0.3c0.2-0.2,0.4-0.4,0.8-0.4h3
	c0.5,0.1,0.6,0.3,0.6,0.8l0,3.2c0,0.2,0.1,0.7,0.4,0.8c0.3,0.1,0.4-0.1,0.6-0.3c0.7-0.7,1.2-1.6,1.7-2.5c0.2-0.4,0.4-0.8,0.5-1.2
	c0.1-0.3,0.3-0.5,0.7-0.5l2.9,0c0.1,0,0.2,0,0.3,0c0.5,0.1,0.6,0.3,0.5,0.7c-0.2,0.7-0.7,1.3-1.1,1.9c-0.5,0.6-1,1.3-1.5,1.9
	C25,19.9,25,20.2,25.5,20.8z"/>
</svg>
