<?xml version="1.0" encoding="utf-8"?>
<!-- Generator: Adobe Illustrator 23.0.0, SVG Export Plug-In . SVG Version: 6.00 Build 0)  -->
<svg version="1.1" id="Слой_1" xmlns="http://www.w3.org/2000/svg" xmlns:xlink="http://www.w3.org/1999/xlink" x="0px" y="0px"
	 viewBox="0 0 38 38" style="enable-background:new 0 0 38 38;" xml:space="preserve">
<style type="text/css">
	.st0{fill:url(#SVGID_1_);}
	.st1{fill-rule:evenodd;clip-rule:evenodd;fill:#FFFFFF;filter:url(#Adobe_OpacityMaskFilter);}
	.st2{mask:url(#mask0_1_);}
	.st3{fill-rule:evenodd;clip-rule:evenodd;fill:#FBFCFD;}
</style>
<linearGradient id="SVGID_1_" gradientUnits="userSpaceOnUse" x1="67.167" y1="-28.9143" x2="1.9081" y2="38.712" gradientTransform="matrix(1 0 0 -1 0 40)">
	<stop  offset="0" style="stop-color:#1ACBFD"/>
	<stop  offset="1" style="stop-color:#345AFF"/>
</linearGradient>
<path class="st0" d="M6,0h26c3.3,0,6,2.7,6,6v26c0,3.3-2.7,6-6,6H6c-3.3,0-6-2.7-6-6V6C0,2.7,2.7,0,6,0z"/>
<defs>
	<filter id="Adobe_OpacityMaskFilter" filterUnits="userSpaceOnUse" x="9" y="13.4" width="12" height="12">
		<feColorMatrix  type="matrix" values="1 0 0 0 0  0 1 0 0 0  0 0 1 0 0  0 0 0 1 0"/>
	</filter>
</defs>
<mask maskUnits="userSpaceOnUse" x="9" y="13.4" width="12" height="12" id="mask0_1_">
	<path class="st1" d="M9,13.4v12h12v-12H9z"/>
</mask>
<g class="st2">
	<path class="st3" d="M15.6,20.7h2.9c-0.5,1.5-1.9,2.5-3.5,2.5c-2,0-3.6-1.6-3.7-3.6c-0.1-2.1,1.6-3.9,3.7-3.9c1,0,1.8,0.4,2.5,1
		c0.2,0.1,0.4,0.1,0.5,0l1.1-1c0.2-0.2,0.2-0.4,0-0.6c-1-1-2.4-1.6-4-1.6c-3.3-0.1-6.1,2.6-6.1,5.9c0,3.3,2.7,6,6,6
		c3.2,0,5.8-2.5,6-5.6c0,0,0-1.4,0-1.4h-5.4c-0.2,0-0.4,0.2-0.4,0.4v1.5C15.2,20.5,15.4,20.7,15.6,20.7z"/>
</g>
<path class="st3" d="M26.1,18.4v-1.6c0-0.2-0.2-0.4-0.4-0.4h-1.3c-0.2,0-0.4,0.2-0.4,0.4v1.6h-1.6c-0.2,0-0.4,0.2-0.4,0.4v1.3
	c0,0.2,0.2,0.4,0.4,0.4H24V22c0,0.2,0.2,0.4,0.4,0.4h1.3c0.2,0,0.4-0.2,0.4-0.4v-1.6h1.6c0.2,0,0.4-0.2,0.4-0.4v-1.3
	c0-0.2-0.2-0.4-0.4-0.4H26.1z"/>
</svg>
